<svg xmlns="http://www.w3.org/2000/svg" xmlns:xlink="http://www.w3.org/1999/xlink" width="32.461" height="32.461" viewBox="0 0 32.461 32.461">
  <defs>
    <clipPath id="clip-path">
      <rect id="Rectangle_51" data-name="Rectangle 51" width="32.461" height="32.461" transform="translate(0 0)" fill="none"/>
    </clipPath>
  </defs>
  <g id="Groupe_75" data-name="Groupe 75" transform="translate(0 0)">
    <g id="Groupe_74" data-name="Groupe 74" clip-path="url(#clip-path)">
      <path id="Tracé_28" data-name="Tracé 28" d="M0,16.23A16.23,16.23,0,1,1,16.23,32.46,16.23,16.23,0,0,1,0,16.23" fill="#eb3c2b" fill-rule="evenodd"/>
      <path id="Tracé_29" data-name="Tracé 29" d="M15.869,24.24a6.44,6.44,0,0,1-3.326-.87,7.838,7.838,0,0,1-2.358-1.924,2.929,2.929,0,0,1-.207-.263,9.4,9.4,0,0,1-1.687-4.992,7.975,7.975,0,0,1,.7-3.75,2.126,2.126,0,0,1,.167-.3l.555-.858a9.4,9.4,0,0,1,.9-1.029,5.758,5.758,0,0,1,2.274-1.494,11.293,11.293,0,0,1,5.525-.332,4.946,4.946,0,0,1,1.011.359l.89.48a8.607,8.607,0,0,1,3.611,4.781,9.024,9.024,0,0,1-.409,5.341A5.861,5.861,0,0,1,21.7,21.72c-1.139.928-3.83,2.52-5.829,2.52M7.477,15.72a9.949,9.949,0,0,0,2.366,6.54c.117.115.136.171.235.279s.183.139.3.256a7.869,7.869,0,0,0,1.208.932,9.072,9.072,0,0,0,1.406.734,6.826,6.826,0,0,0,2.747.593c2.367,0,5.161-1.66,6.5-2.75a6.629,6.629,0,0,0,2.512-4.425c.064-.342.115-.661.153-1a7.656,7.656,0,0,0-1.326-5.44c-.074-.124-.135-.226-.216-.34a10.015,10.015,0,0,0-1.2-1.413c-.2-.154-.42-.388-.863-.722a7.693,7.693,0,0,0-4.789-1.547,9.743,9.743,0,0,0-5.222,1.243l-1.21.973a13.2,13.2,0,0,0-1.428,1.784A8.38,8.38,0,0,0,7.477,15.72" fill="#fff" fill-rule="evenodd"/>
      <text id="_" data-name="+" transform="translate(10.775 21.923)" fill="#fff" font-size="22.961" font-family="Helvetica"><tspan x="0" y="0">+</tspan></text>
    </g>
  </g>
</svg>
