<svg id="Groupe_245" data-name="Groupe 245" xmlns="http://www.w3.org/2000/svg" xmlns:xlink="http://www.w3.org/1999/xlink" width="166.524" height="55.238" viewBox="0 0 166.524 55.238">
  <defs>
    <clipPath id="clip-path">
      <rect id="Rectangle_119" data-name="Rectangle 119" width="166.524" height="55.238" fill="none"/>
    </clipPath>
    <clipPath id="clip-path-2">
      <rect id="Rectangle_117" data-name="Rectangle 117" width="166.524" height="55.238" transform="translate(0 0)" fill="none"/>
    </clipPath>
    <clipPath id="clip-path-5">
      <rect id="Rectangle_97" data-name="Rectangle 97" width="166.105" height="55.092" transform="translate(0.053 0.036)" fill="none"/>
    </clipPath>
    <clipPath id="clip-path-6">
      <rect id="Rectangle_98" data-name="Rectangle 98" width="165.687" height="54.945" transform="translate(0.106 0.071)" fill="none"/>
    </clipPath>
    <clipPath id="clip-path-7">
      <rect id="Rectangle_99" data-name="Rectangle 99" width="165.268" height="54.799" transform="translate(0.159 0.107)" fill="none"/>
    </clipPath>
    <clipPath id="clip-path-8">
      <rect id="Rectangle_100" data-name="Rectangle 100" width="164.85" height="54.652" transform="translate(0.212 0.143)" fill="none"/>
    </clipPath>
    <clipPath id="clip-path-9">
      <rect id="Rectangle_101" data-name="Rectangle 101" width="164.431" height="54.506" transform="translate(0.265 0.178)" fill="none"/>
    </clipPath>
    <clipPath id="clip-path-10">
      <rect id="Rectangle_102" data-name="Rectangle 102" width="164.013" height="54.359" transform="translate(0.318 0.214)" fill="none"/>
    </clipPath>
    <clipPath id="clip-path-11">
      <rect id="Rectangle_103" data-name="Rectangle 103" width="163.594" height="54.213" transform="translate(0.371 0.25)" fill="none"/>
    </clipPath>
    <clipPath id="clip-path-12">
      <rect id="Rectangle_104" data-name="Rectangle 104" width="163.176" height="54.067" transform="translate(0.424 0.285)" fill="none"/>
    </clipPath>
    <clipPath id="clip-path-13">
      <rect id="Rectangle_105" data-name="Rectangle 105" width="162.758" height="53.92" transform="translate(0.477 0.321)" fill="none"/>
    </clipPath>
    <clipPath id="clip-path-14">
      <rect id="Rectangle_106" data-name="Rectangle 106" width="162.34" height="53.774" transform="translate(0.53 0.357)" fill="none"/>
    </clipPath>
    <clipPath id="clip-path-15">
      <rect id="Rectangle_107" data-name="Rectangle 107" width="161.921" height="53.627" transform="translate(0.583 0.392)" fill="none"/>
    </clipPath>
    <clipPath id="clip-path-16">
      <rect id="Rectangle_110" data-name="Rectangle 110" width="160.998" height="53" transform="translate(0.583 0.392)" fill="none"/>
    </clipPath>
    <clipPath id="clip-path-17">
      <path id="Tracé_86" data-name="Tracé 86" d="M149.912.392.583,12.564,3.326,53.392,153.285,41.779l2.222-2.678a26.354,26.354,0,0,0-5.6-38.709" fill="none"/>
    </clipPath>
    <linearGradient id="linear-gradient" x1="0.008" y1="0.928" x2="0.014" y2="0.928" gradientUnits="objectBoundingBox">
      <stop offset="0" stop-color="#fff"/>
      <stop offset="0.098" stop-color="#fff"/>
      <stop offset="0.244" stop-color="#fdfdfc"/>
      <stop offset="0.336" stop-color="#faf7f3"/>
      <stop offset="0.412" stop-color="#f3ede5"/>
      <stop offset="0.481" stop-color="#eadfd0"/>
      <stop offset="0.537" stop-color="#e0d0b9"/>
      <stop offset="0.814" stop-color="#e0d0b9"/>
      <stop offset="0.923" stop-color="#e5d7c5"/>
      <stop offset="1" stop-color="#eadfd1"/>
    </linearGradient>
    <radialGradient id="radial-gradient" cx="1.07" cy="-0.022" r="1.915" gradientTransform="translate(0.011 1.459) rotate(180) scale(0.393 0.572)" gradientUnits="objectBoundingBox">
      <stop offset="0" stop-color="#443f38"/>
      <stop offset="0.15" stop-color="#38332e"/>
      <stop offset="0.71" stop-color="#0f0e0c"/>
      <stop offset="1"/>
    </radialGradient>
    <radialGradient id="radial-gradient-2" cx="0.207" cy="0.164" r="1.461" gradientTransform="translate(0.011 1.234) rotate(180) scale(0.393 0.33)" xlink:href="#radial-gradient"/>
    <clipPath id="clip-path-22">
      <rect id="Rectangle_116" data-name="Rectangle 116" width="23.255" height="42.512" transform="translate(0.586 10.88)" fill="none"/>
    </clipPath>
    <clipPath id="clip-path-23">
      <path id="Tracé_89" data-name="Tracé 89" d="M.586,12.566l2.74,40.826,20.515-1.557L21.282,10.88Z" fill="none"/>
    </clipPath>
    <linearGradient id="linear-gradient-2" x1="0.024" y1="1.028" x2="0.063" y2="1.028" gradientUnits="objectBoundingBox">
      <stop offset="0" stop-color="#e0d0b9"/>
      <stop offset="0.605" stop-color="#e0d0b9"/>
      <stop offset="0.738" stop-color="#e0d0b9"/>
      <stop offset="0.826" stop-color="#e3d5c2"/>
      <stop offset="1" stop-color="#eadfd1"/>
    </linearGradient>
  </defs>
  <g id="Groupe_244" data-name="Groupe 244" clip-path="url(#clip-path)">
    <g id="Groupe_241" data-name="Groupe 241">
      <g id="Groupe_240" data-name="Groupe 240" clip-path="url(#clip-path-2)">
        <g id="Groupe_219" data-name="Groupe 219" style="mix-blend-mode: multiply;isolation: isolate">
          <g id="Groupe_218" data-name="Groupe 218">
            <g id="Groupe_217" data-name="Groupe 217" clip-path="url(#clip-path-2)">
              <g id="Groupe_183" data-name="Groupe 183" opacity="0">
                <g id="Groupe_182" data-name="Groupe 182">
                  <g id="Groupe_181" data-name="Groupe 181" clip-path="url(#clip-path-2)">
                    <path id="Tracé_73" data-name="Tracé 73" d="M154.56,1.771,151.844,0,0,12.574,1.092,55.239,155.176,47.06l5.311-6.431A26.353,26.353,0,0,0,154.56,1.771" fill="#fff"/>
                  </g>
                </g>
              </g>
              <g id="Groupe_186" data-name="Groupe 186" opacity="0.091">
                <g id="Groupe_185" data-name="Groupe 185">
                  <g id="Groupe_184" data-name="Groupe 184" clip-path="url(#clip-path-5)">
                    <path id="Tracé_74" data-name="Tracé 74" d="M154.222,1.7,151.669.036.053,12.573l1.22,42.555,153.775-8.416,5.129-6.238A26.351,26.351,0,0,0,154.222,1.7" fill="#fbfbfb"/>
                  </g>
                </g>
              </g>
              <g id="Groupe_189" data-name="Groupe 189" opacity="0.182">
                <g id="Groupe_188" data-name="Groupe 188">
                  <g id="Groupe_187" data-name="Groupe 187" clip-path="url(#clip-path-6)">
                    <path id="Tracé_75" data-name="Tracé 75" d="M153.883,1.633,151.493.072.106,12.572,1.453,55.017l153.466-8.653,4.946-6.045a26.349,26.349,0,0,0-5.982-38.686" fill="#f7f7f7"/>
                  </g>
                </g>
              </g>
              <g id="Groupe_192" data-name="Groupe 192" opacity="0.273">
                <g id="Groupe_191" data-name="Groupe 191">
                  <g id="Groupe_190" data-name="Groupe 190" clip-path="url(#clip-path-7)">
                    <path id="Tracé_76" data-name="Tracé 76" d="M153.544,1.564,151.317.107.159,12.571,1.634,54.906,154.79,46.017l4.764-5.853a26.348,26.348,0,0,0-6.01-38.6" fill="#f3f3f3"/>
                  </g>
                </g>
              </g>
              <g id="Groupe_195" data-name="Groupe 195" opacity="0.364">
                <g id="Groupe_194" data-name="Groupe 194">
                  <g id="Groupe_193" data-name="Groupe 193" clip-path="url(#clip-path-8)">
                    <path id="Tracé_77" data-name="Tracé 77" d="M153.206,1.5,151.142.143.212,12.57l1.6,42.225,152.847-9.126,4.582-5.66A26.348,26.348,0,0,0,153.206,1.5" fill="#efefef"/>
                  </g>
                </g>
              </g>
              <g id="Groupe_198" data-name="Groupe 198" opacity="0.455">
                <g id="Groupe_197" data-name="Groupe 197">
                  <g id="Groupe_196" data-name="Groupe 196" clip-path="url(#clip-path-9)">
                    <path id="Tracé_78" data-name="Tracé 78" d="M152.867,1.426l-1.9-1.248L.265,12.569,2,54.684l152.538-9.363,4.4-5.467a26.346,26.346,0,0,0-6.065-38.428" fill="#ebebeb"/>
                  </g>
                </g>
              </g>
              <g id="Groupe_201" data-name="Groupe 201" opacity="0.545">
                <g id="Groupe_200" data-name="Groupe 200">
                  <g id="Groupe_199" data-name="Groupe 199" clip-path="url(#clip-path-10)">
                    <path id="Tracé_79" data-name="Tracé 79" d="M152.529,1.357,150.79.214.318,12.569,2.176,54.574l152.229-9.6,4.217-5.275a26.347,26.347,0,0,0-6.093-38.342" fill="#e8e8e8"/>
                  </g>
                </g>
              </g>
              <g id="Groupe_204" data-name="Groupe 204" opacity="0.636">
                <g id="Groupe_203" data-name="Groupe 203">
                  <g id="Groupe_202" data-name="Groupe 202" clip-path="url(#clip-path-11)">
                    <path id="Tracé_80" data-name="Tracé 80" d="M152.19,1.288,150.615.25.371,12.568l1.986,41.9,151.92-9.837,4.034-5.083A26.346,26.346,0,0,0,152.19,1.288" fill="#e4e4e4"/>
                  </g>
                </g>
              </g>
              <g id="Groupe_207" data-name="Groupe 207" opacity="0.727">
                <g id="Groupe_206" data-name="Groupe 206">
                  <g id="Groupe_205" data-name="Groupe 205" clip-path="url(#clip-path-12)">
                    <path id="Tracé_81" data-name="Tracé 81" d="M151.851,1.219,150.439.285.424,12.567,2.537,54.352,154.148,44.278,158,39.388a26.347,26.347,0,0,0-6.148-38.169" fill="#e0e0e0"/>
                  </g>
                </g>
              </g>
              <g id="Groupe_210" data-name="Groupe 210" opacity="0.818">
                <g id="Groupe_209" data-name="Groupe 209">
                  <g id="Groupe_208" data-name="Groupe 208" clip-path="url(#clip-path-13)">
                    <path id="Tracé_82" data-name="Tracé 82" d="M151.513,1.15,150.264.321.477,12.566,2.719,54.241,154.02,43.93l3.669-4.7A26.35,26.35,0,0,0,151.513,1.15" fill="#dcdcdc"/>
                  </g>
                </g>
              </g>
              <g id="Groupe_213" data-name="Groupe 213" opacity="0.909">
                <g id="Groupe_212" data-name="Groupe 212">
                  <g id="Groupe_211" data-name="Groupe 211" clip-path="url(#clip-path-14)">
                    <path id="Tracé_83" data-name="Tracé 83" d="M151.174,1.081,150.088.357.53,12.565,2.9,54.13,153.891,43.583l3.486-4.505a26.351,26.351,0,0,0-6.2-38" fill="#d8d8d8"/>
                  </g>
                </g>
              </g>
              <g id="Groupe_216" data-name="Groupe 216">
                <g id="Groupe_215" data-name="Groupe 215">
                  <g id="Groupe_214" data-name="Groupe 214" clip-path="url(#clip-path-15)">
                    <path id="Tracé_84" data-name="Tracé 84" d="M150.835,1.012l-.923-.62L.582,12.564l2.5,41.455L153.762,43.235l3.3-4.312a26.354,26.354,0,0,0-6.231-37.911" fill="#d4d4d4"/>
                  </g>
                </g>
              </g>
            </g>
          </g>
        </g>
        <path id="Tracé_85" data-name="Tracé 85" d="M149.912.392.583,12.564,3.326,53.392,153.285,41.779l2.222-2.678a26.354,26.354,0,0,0-5.6-38.709" fill="#ffe5c0"/>
        <g id="Groupe_224" data-name="Groupe 224" opacity="0.76" style="mix-blend-mode: multiply;isolation: isolate">
          <g id="Groupe_223" data-name="Groupe 223">
            <g id="Groupe_222" data-name="Groupe 222" clip-path="url(#clip-path-16)">
              <g id="Groupe_221" data-name="Groupe 221">
                <g id="Groupe_220" data-name="Groupe 220" clip-path="url(#clip-path-17)">
                  <rect id="Rectangle_109" data-name="Rectangle 109" width="168.651" height="66.217" transform="translate(-3.707 0.742) rotate(-4.659)" fill="url(#linear-gradient)"/>
                </g>
              </g>
            </g>
          </g>
        </g>
        <g id="Groupe_229" data-name="Groupe 229" opacity="0.48" style="mix-blend-mode: color-dodge;isolation: isolate">
          <g id="Groupe_228" data-name="Groupe 228">
            <g id="Groupe_227" data-name="Groupe 227" clip-path="url(#clip-path-16)">
              <g id="Groupe_226" data-name="Groupe 226">
                <g id="Groupe_225" data-name="Groupe 225" clip-path="url(#clip-path-17)">
                  <rect id="Rectangle_111" data-name="Rectangle 111" width="168.651" height="66.217" transform="matrix(0.997, -0.081, 0.081, 0.997, -3.707, 0.742)" fill="url(#radial-gradient)"/>
                </g>
              </g>
            </g>
          </g>
        </g>
        <g id="Groupe_234" data-name="Groupe 234" opacity="0.37" style="mix-blend-mode: color-dodge;isolation: isolate">
          <g id="Groupe_233" data-name="Groupe 233">
            <g id="Groupe_232" data-name="Groupe 232" clip-path="url(#clip-path-16)">
              <g id="Groupe_231" data-name="Groupe 231">
                <g id="Groupe_230" data-name="Groupe 230" clip-path="url(#clip-path-17)">
                  <rect id="Rectangle_113" data-name="Rectangle 113" width="168.651" height="66.217" transform="translate(-3.707 0.742) rotate(-4.659)" fill="url(#radial-gradient-2)"/>
                </g>
              </g>
            </g>
          </g>
        </g>
        <g id="Groupe_239" data-name="Groupe 239" opacity="0.19" style="mix-blend-mode: multiply;isolation: isolate">
          <g id="Groupe_238" data-name="Groupe 238">
            <g id="Groupe_237" data-name="Groupe 237" clip-path="url(#clip-path-22)">
              <g id="Groupe_236" data-name="Groupe 236">
                <g id="Groupe_235" data-name="Groupe 235" clip-path="url(#clip-path-23)">
                  <rect id="Rectangle_115" data-name="Rectangle 115" width="25.661" height="43.779" transform="matrix(0.998, -0.057, 0.057, 0.998, -1.854, 11.021)" fill="url(#linear-gradient-2)"/>
                </g>
              </g>
            </g>
          </g>
        </g>
      </g>
    </g>
    <text id="CITATION" transform="translate(28.065 38.548) rotate(-5.404)" font-size="20.262" font-family="Helvetica"><tspan x="0" y="0">CITATION</tspan></text>
    <g id="Groupe_243" data-name="Groupe 243">
      <g id="Groupe_242" data-name="Groupe 242" clip-path="url(#clip-path-2)">
        <path id="Tracé_90" data-name="Tracé 90" d="M29.565,26.753A6.689,6.689,0,0,0,28.3,31.982,7.651,7.651,0,0,0,30.646,37.2a3.325,3.325,0,0,0,2.582.835,5.606,5.606,0,0,0,1.645-.471,19.1,19.1,0,0,0,2.588-1.476,1.094,1.094,0,0,0,.417-.955c-.036-.364-.226-.53-.576-.5a3.058,3.058,0,0,0-.936.435,8.17,8.17,0,0,1-2.93,1.295,2.152,2.152,0,0,1-1.7-.593,5.632,5.632,0,0,1-1.708-3.847,5.709,5.709,0,0,1,.767-3.94,4.18,4.18,0,0,1,3.186-1.6,8.118,8.118,0,0,1,2.065.091,1.218,1.218,0,0,0,.732-.325.727.727,0,0,0,.278-.615.8.8,0,0,0-.422-.582,9.885,9.885,0,0,0-3.035-.242A5.917,5.917,0,0,0,29.565,26.753Z" fill="none" stroke="#000" stroke-miterlimit="10" stroke-width="1.546"/>
        <path id="Tracé_91" data-name="Tracé 91" d="M39.564,25l.763,6.767q.282,2.987.271,5.021a.51.51,0,0,0,.62.531,1.162,1.162,0,0,0,.655-.3.783.783,0,0,0,.322-.569q-.027-1.992-.294-4.837-.5-4.653-.742-6.991a.5.5,0,0,0-.55-.417,1.3,1.3,0,0,0-.7.27A.871.871,0,0,0,39.564,25Z" fill="none" stroke="#000" stroke-miterlimit="10" stroke-width="1.546"/>
        <path id="Tracé_92" data-name="Tracé 92" d="M42.924,24.259a.87.87,0,0,0-.2.6.715.715,0,0,0,.227.478.651.651,0,0,0,.524.153c.822-.063,1.508-.122,2.06-.173s.967-.1,1.248-.139q-.039.877.363,5.125t.67,5.788q.123.661.709.6a1.969,1.969,0,0,0,.6-.138c.209-.087.294-.34.255-.757l-.751-7.073q-.024-.241-.1-1.119t-.147-2.622q1.686-.242,3.2-.383.826-.079.732-1.089c-.026-.268-.239-.445-.641-.528l-8.158.893A.952.952,0,0,0,42.924,24.259Z" fill="none" stroke="#000" stroke-miterlimit="10" stroke-width="1.546"/>
        <path id="Tracé_93" data-name="Tracé 93" d="M58.47,26.483a17.136,17.136,0,0,1,.754,2.167.733.733,0,0,1-.009.327c-.025.036-.157.065-.4.088s-.738.029-1.484.019a3.062,3.062,0,0,1-1.3-.163.194.194,0,0,1-.055-.136,9.144,9.144,0,0,1,.537-2.28q.579-1.857.88-1.884Q57.74,24.588,58.47,26.483Zm-2.936-2.216a29.917,29.917,0,0,0-1.263,5.6,27.436,27.436,0,0,0-.544,5.647c.036.39.284.564.741.521s.7-.2.73-.457q.19-4.638.525-5a.963.963,0,0,1,.516-.13c.3-.029.9-.031,1.821-.01a6.349,6.349,0,0,1,1.633.151,11.516,11.516,0,0,1,.9,2.6q.332,1.129.449,1.514a.872.872,0,0,0,.376.535,1.009,1.009,0,0,0,.611.115.794.794,0,0,0,.529-.224.469.469,0,0,0,.161-.34,1.06,1.06,0,0,0-.042-.229,58.889,58.889,0,0,0-3.457-10.074,8.581,8.581,0,0,0-1.062-1.752,1.042,1.042,0,0,0-.889-.364Q56.26,22.469,55.534,24.267Z" fill="none" stroke="#000" stroke-miterlimit="10" stroke-width="1.546"/>
        <path id="Tracé_94" data-name="Tracé 94" d="M62.208,22.435a.872.872,0,0,0-.2.6.713.713,0,0,0,.227.477.651.651,0,0,0,.524.153c.822-.063,1.508-.122,2.059-.173s.968-.1,1.249-.139q-.039.879.363,5.126t.67,5.787q.122.662.709.6a1.969,1.969,0,0,0,.6-.138c.209-.087.293-.34.254-.757l-.75-7.073q-.024-.242-.106-1.119t-.147-2.621q1.688-.243,3.2-.384.827-.079.732-1.088c-.026-.269-.239-.445-.641-.529l-8.158.893A.952.952,0,0,0,62.208,22.435Z" fill="none" stroke="#000" stroke-miterlimit="10" stroke-width="1.546"/>
        <path id="Tracé_95" data-name="Tracé 95" d="M73.029,21.839l.763,6.766q.282,2.987.271,5.022a.51.51,0,0,0,.62.531,1.172,1.172,0,0,0,.655-.3.79.79,0,0,0,.322-.57q-.027-1.99-.294-4.836-.5-4.653-.743-6.991c-.1-.3-.28-.443-.549-.417a1.3,1.3,0,0,0-.7.27A.871.871,0,0,0,73.029,21.839Z" fill="none" stroke="#000" stroke-miterlimit="10" stroke-width="1.546"/>
        <path id="Tracé_96" data-name="Tracé 96" d="M84.508,22.585a7.548,7.548,0,0,1,.959,3.369,12.01,12.01,0,0,1-.027,2.507,4.391,4.391,0,0,1-.777,2.118,2.1,2.1,0,0,1-1.518.947,2.4,2.4,0,0,1-1.559-.342,4.78,4.78,0,0,1-1.866-2.508,9.258,9.258,0,0,1-.638-2.444,6.416,6.416,0,0,1,.036-1.775,3.161,3.161,0,0,1,3.127-2.88A2.239,2.239,0,0,1,84.508,22.585ZM78.3,22.073a7.016,7.016,0,0,0-.829,4.372,11.75,11.75,0,0,0,.751,3.094,8.044,8.044,0,0,0,1.8,2.791,3.655,3.655,0,0,0,3.11,1.028,4.012,4.012,0,0,0,2.451-1.412,7.979,7.979,0,0,0,1.581-6.082q-.353-3.743-2.454-5.293a3.437,3.437,0,0,0-2.486-.682A4.722,4.722,0,0,0,78.3,22.073Z" fill="none" stroke="#000" stroke-miterlimit="10" stroke-width="1.546"/>
        <path id="Tracé_97" data-name="Tracé 97" d="M95.821,18.787q-.36.279-.2,2.013l1.034,8.349q-.292-.5-1.756-2.633t-1.974-2.794q-2.624-3.416-3.732-3.311a.725.725,0,0,0-.446.226c-.138.134-.159.686-.068,1.654.016.161.051.542.108,1.14s.149,2.113.276,4.543.2,3.767.228,4.009a.616.616,0,0,0,.261.5.863.863,0,0,0,.549.111c.457-.043.693-.228.7-.555a75.6,75.6,0,0,0-.5-9.132,31.262,31.262,0,0,1,3.4,4.34q.546.823,1.222,1.857t.884,1.372q.2.338.3.47l.247.354a1.626,1.626,0,0,0,.241.293l.221.182a.651.651,0,0,0,.257.138,1.9,1.9,0,0,0,.726.033q.292-.027.5-.444a1.562,1.562,0,0,0,.163-.86c0-.026-.08-.586-.23-1.676s-.474-4.268-.971-9.527a.891.891,0,0,0-.323-.609.805.805,0,0,0-.61-.218A1.019,1.019,0,0,0,95.821,18.787Z" fill="none" stroke="#000" stroke-miterlimit="10" stroke-width="1.546"/>
        <path id="Tracé_98" data-name="Tracé 98" d="M121.617,20.932a14.737,14.737,0,0,0,2.694,1.28,23.447,23.447,0,0,0,6.545,1.27c1.363.086,2.5-.02,3.85-.026a16.073,16.073,0,0,1-.817,2.654,11.732,11.732,0,0,1-.558,1.24,8.157,8.157,0,0,1-.718,1.107c-2.9,3.491-10.441,1.175-11.088-4.2a12.4,12.4,0,0,1-.069-1.741,4.871,4.871,0,0,1,.161-1.587m12.925-.427a4.605,4.605,0,0,0-.944.768l1.11-.1Zm-3.077.311c.031.565.234.527,1.35.478l-.432-1.264a6.03,6.03,0,0,0-.918.786m-2.4-.288a1,1,0,0,0-.4.437l.589.071Zm6.1.586a3.043,3.043,0,0,1-.273-.932l.666-.461-.2,1.115c-.058.293-.011.22-.188.278m-4.825-1.831c-.254.2-.45.4-.681.616-.358.334-.274.246-.082.772.168.465.108.5.692.52.3.01.543-.3.666-.5-.089-.257-.181-.491-.282-.748l-.285-.627c0-.021-.017-.024-.028-.034m2.382.449.439,1.277c.446-.224.787-.717,1.261-.919l-.383-1.275a8.282,8.282,0,0,0-1.317.917m-6.295.7.547.132-.168-.544a.931.931,0,0,0-.379.412m.7-.722c.357,1.123.276,1.006.795,1.1.324.056.4-.1.557-.292.182-.224.266-.272.421-.444l-.6-1.477a6.958,6.958,0,0,0-1.171,1.117m7.26-1.178,1.1-.649c.336,1.217.6.97-.69,1.856a1.684,1.684,0,0,1-.219-.57c-.069-.222-.138-.411-.194-.637m-3.664.43a8.648,8.648,0,0,0,.59,1.4c.154-.119.274-.234.442-.382.074-.066.149-.131.216-.188l.244-.221-.518-1.367a5.047,5.047,0,0,0-.974.756m-5.736.485a7.68,7.68,0,0,1,1.127-1.1,8.412,8.412,0,0,1,.484,1.236c-.151.157-.244.251-.382.389-.183.184-.167.326-.435.271-.542-.112-.664-.268-.794-.8m-3.729-.223c-.1.356.906.844,1.227,1.016a14.06,14.06,0,0,0,1.526.724,23.8,23.8,0,0,0,10.576,1.44c.513-.047.858-.007.987-.236-.127-.063-1.872.143-2.216.157-.7.029-1.375.023-2.069-.016a21.415,21.415,0,0,1-8.643-2.265Zm1.893-.127a5.184,5.184,0,0,1,.832-.857l.485,1.078a3.836,3.836,0,0,0-.249.311Zm5.46-.8a8.457,8.457,0,0,1,.955-.832l.629,1.367c-.327.346-.713.6-.961.886Zm3.426-.327a7.716,7.716,0,0,1,1.345-.886l.494,1.286-1.313.945Zm-5.613.069a7.963,7.963,0,0,1,1.152-1.009l.513,1.132-1.133,1.048Zm-2.172-.164L124.781,19a11.341,11.341,0,0,0,1.11-1.095l-.56-1.036a3.987,3.987,0,0,0-.536.494,4.73,4.73,0,0,1-.543.511m9.478-1.053.5,1.334,1.11-.673-.508-1.252Zm-3.822.349.96-.754a4.988,4.988,0,0,1,.618,1.371l-.927.737Zm-7.806.285.675,1.355a2.454,2.454,0,0,0,.52-.507c.15-.176.262-.262.431-.48l-.809-1.329a6.252,6.252,0,0,0-.817.961m5.773-.738.522,1.15a7.125,7.125,0,0,0,.964-.81L128.8,16c-.317.189-.631.517-.93.724m7.854.535-.527-1.228c1.281-.61,1.258-.914.98.661-.073.412-.071.43-.453.567m-4.5-1.142.615,1.432,1.342-.835a5.255,5.255,0,0,0-.736-1.42Zm-5.605.408.562,1.1,1.172-.972-.56-1.109c-.433.248-.759.722-1.174.983m3.528-.841.582,1.084.952-.76a4.345,4.345,0,0,0-.534-1.035Zm-5.926.445a8.345,8.345,0,0,1,1.027-.97l.842,1.31a9.808,9.808,0,0,1-1.038,1.018Zm9.6-1.1,1.065-.637.756,1.449-1.115.636Zm-10.761,1.751.189-1.289.445.616a2.07,2.07,0,0,0-.322.333c-.157.213-.107.209-.312.34m5.018-1.552.922-.735a11.433,11.433,0,0,1,.605,1.144,10.165,10.165,0,0,0-.941.706Zm3.437-.532a10.679,10.679,0,0,1,1.185-.722l.567.955c-.431.207-.868.653-1.244.818Zm3.748-.481.776,1.42a3.731,3.731,0,0,0,1.017-.55l-.781-1.421a3.461,3.461,0,0,0-1.012.551m-9.746.613c.389-.234.826-.74,1.224-.953a8.2,8.2,0,0,1,.795,1.251,8.235,8.235,0,0,1-1.168,1.054Zm-1.27-1.029a2.953,2.953,0,0,0-.876.893c-.07.284.437.762.574,1.077a7.532,7.532,0,0,0,1-.986c-.192-.327-.539-.679-.7-.984m5.089.457a4.878,4.878,0,0,1,1.045-.77l.584,1.071-1,.757Zm3.7-.5.592.919,1.017-.644-.547-.89Zm4.448,1.174a11.282,11.282,0,0,1-.815-1.428,3.306,3.306,0,0,1,1.093-.523Zm-3.013-2.005,1.032-.478.526.821-.976.55a3.067,3.067,0,0,1-.582-.893m-7.368.678.774,1.242a5.787,5.787,0,0,0,.863-.709A6.763,6.763,0,0,0,127,12.974Zm3.6-.347.629,1.073,1.09-.728-.674-1a3.1,3.1,0,0,0-1.045.655m-6.166.213.374.543a4.927,4.927,0,0,0,.374.474,15.691,15.691,0,0,0,1.223-1.016l-.662-.977c-.423.164-.932.764-1.309.976m11.375-1.171.53.8,1.1-.5-.409-.724Zm-12.378,1.529.112-.719.292.332a1.466,1.466,0,0,1-.4.387m4.837-1.109a4.8,4.8,0,0,0,.752,1.131l.991-.7a4.851,4.851,0,0,0-.7-1.04Zm3.7-.346,1.038-.574.727.977-1.026.613Zm5.426-.747.434-.143-.063.755Zm-3.972-.01.664.965.843-.365c.052-.029.066-.036.112-.066a.39.39,0,0,0,.1-.086l-.679-.909Zm-7.364.6a6.68,6.68,0,0,1,.914-.558,10.456,10.456,0,0,0,.665.948,4.585,4.585,0,0,1-.91.634Zm3.664-.32a7.049,7.049,0,0,1,.929-.495,3.938,3.938,0,0,1,.685.882l-.952.575ZM123.3,13.142a.914.914,0,0,1-.435-1.091,3.646,3.646,0,0,1,1.026-.825c.158.3.552.622.677.95a12.387,12.387,0,0,0-1.268.966m10.695-2.162a10.9,10.9,0,0,1,1.388-.437l.5.833a5.055,5.055,0,0,1-1.239.534Zm-3.815.209c.2.25.427.575.647.826l1.04-.545c-.163-.318-.453-.548-.6-.84Zm-3.765.233a4.906,4.906,0,0,1,1.1-.614c.159.343.514.579.686.973l-1.081.616c-.218-.323-.522-.679-.705-.975m9.36-1.006.493.845.681-.246a3.083,3.083,0,0,0,.073-.988Zm-4.134.04L132.656,10a3.465,3.465,0,0,1,.655.806l-1.06.449Zm-7.434.525.717.879a3.257,3.257,0,0,0,.825-.565,5.652,5.652,0,0,0-.738-.861Zm4.507-.851-.87.451a7.556,7.556,0,0,1,.687.951l.965-.483a2.121,2.121,0,0,0-.353-.46Zm-5.68,1.165a1.981,1.981,0,0,1,.191-.784,1.282,1.282,0,0,1,.339.411Zm10.092-1.454a7.1,7.1,0,0,0,.606.793l1.362-.484-.569-.875a5.674,5.674,0,0,0-1.4.566M130.24,9.4c.171.316.5.566.7.885l-.247.169c-.1.051-.175.08-.285.135a5.659,5.659,0,0,1-.521.248,8.456,8.456,0,0,1-.744-.931Zm-4.819.826c.2.285.5.566.7.855l1.03-.6a4.2,4.2,0,0,0-.8-.848,4.285,4.285,0,0,0-.933.588m10.845-1.563.565.949a6.351,6.351,0,0,1-1.317.41l-.6-.915Zm-12.332,1.97c-.622-.438-.842-1.068-.075-1.413a5.272,5.272,0,0,1,.853.912Zm7.739-1.875-1.062.445a6.126,6.126,0,0,0,.778.909l1-.443c-.192-.335-.564-.616-.72-.911m-4,.2a5.1,5.1,0,0,1,.742.814,4.259,4.259,0,0,1-.852.476,5.953,5.953,0,0,1-.78-.845Zm4.41-.347a4.923,4.923,0,0,1,1.433-.594,8.253,8.253,0,0,1,.688.915l-1.425.551a7.988,7.988,0,0,0-.7-.872m-3.979.143a7.587,7.587,0,0,0,.731.819,4.024,4.024,0,0,0,1.039-.521,3.691,3.691,0,0,0-.757-.811,3.65,3.65,0,0,0-1.013.513M125,8.384a5.486,5.486,0,0,1,1.056.935l-.951.557-.889-.953Zm10.335-1-1.409.465.7.911,1.353-.465Zm-4.769.209a5.127,5.127,0,0,1,.761.835l-.99.436a4.688,4.688,0,0,1-.78-.845Zm5.221-.327a1.86,1.86,0,0,1,.669-.231,4.316,4.316,0,0,1,.362,1l-.422.1Zm-10.348.863a11.52,11.52,0,0,0,1.023.956l.88-.5c-.267-.345-.754-.707-.955-1.027a3.046,3.046,0,0,0-.948.567m5.59-.7a10.255,10.255,0,0,1,.69.814l1.472-.566a2.778,2.778,0,0,0-.8-.833c-.412.234-1.039.3-1.358.585m-6.338.681a1.289,1.289,0,0,0-.66-.56c-.044.2-.372.9-.227,1.021.125.109.3-.067.43-.162a2.822,2.822,0,0,1,.457-.3m3.088-1.314c.274.367.737.7,1.017,1.077a1.641,1.641,0,0,1-.5.283,3.137,3.137,0,0,1-.584.254c-.234-.409-.8-.771-.975-1.1Zm6.494-.587a3.53,3.53,0,0,1,.754.824l-1.388.463a6.074,6.074,0,0,1-.733-.832Zm.524-.126c.181.252.439.527.657.8l.743-.21a2.6,2.6,0,0,0-.679-.836,2.1,2.1,0,0,0-.721.247M124.244,7.153a1.073,1.073,0,0,1,.8-.862c.147.209.816.738.959.968l-.943.549Zm3.921-.563a7.124,7.124,0,0,0,.53.558c.173.174.383.422.532.548l1.026-.44a7.943,7.943,0,0,0-1.1-1.114,5.347,5.347,0,0,0-.987.448m1.612-.726c.023-.013.14-.058.172-.071,1.367-.529.919-.576,2.181.7l-1.437.558c-.4-.328-.683-.713-1.089-1.052Zm-4.4.177a13.586,13.586,0,0,0,1.044.974l.972-.523c-.1-.161.018,0-.112-.14l-.917-.873a5.333,5.333,0,0,0-.987.562m7.561-1.262-1.447.442.985,1.018c.212.166.9-.221,1.5-.37-.289-.435-.761-.7-1.038-1.09m1.4.039a5.536,5.536,0,0,1,.792.645,1.523,1.523,0,0,1-.577.21c-.224.02-.289-.145-.425-.282l-.739-.752c.438-.288.668-.006.949.179M127.688,4.8a10,10,0,0,1,1.13,1l-.992.454-1.073-1.012Zm-2.642.917a2.95,2.95,0,0,1,.687-.765l.237.231Zm4.561-1.654-1.436.511c.147.293.806.713,1.037,1.044l1.455-.551c-.332-.36-.746-.656-1.056-1m-3.536.608.283.279,1-.471-.36-.355a2.485,2.485,0,0,0-.922.547m3.99-.76c.3-.121,1.168-.508,1.429-.342a5.679,5.679,0,0,1,.993.882l-1.375.452Zm-2.679-.027c.347-.123.642-.242,1.011-.338.629-.163.44-.086.8.195l-1.4.548Zm-6.538,14.035c-.625.112-.71,1.1-.66,1.633.059.608.392.407.339.911-.242,2.334-.334,4.849.979,6.875a6.74,6.74,0,0,0,.871,1.067c.2.206.3.286.512.473l.537.444a9.688,9.688,0,0,0,2.433,1.36,7.755,7.755,0,0,0,4.028.4c2.751-.261,4.5-2.8,5.217-5.2a21.325,21.325,0,0,0,.737-2.579c.705-.126.935-1.168.89-1.654-.026-.272-.219-.4-.344-.55.062-.445.2-.919.278-1.364.25-1.428.566-2.722.819-4.265a29.827,29.827,0,0,0,.585-6.1A5.931,5.931,0,0,0,136.8,5.63a9.486,9.486,0,0,0-3.1-2.417,6.974,6.974,0,0,0-1.263-.528,8.5,8.5,0,0,0-1.423-.334,7.527,7.527,0,0,0-6.127,1.915,10.137,10.137,0,0,0-2.487,5.01c-.316,1.176-.55,2.37-.781,3.606l-.609,3.746a8.3,8.3,0,0,0-.168,1.3" fill-rule="evenodd"/>
        <path id="Tracé_99" data-name="Tracé 99" d="M125.884,34.548c-.156-.116-1.361-.435-1.687-.568a12.088,12.088,0,0,1-4.331-2.6c-1.667-1.73-2.457-4.216-2.692-7.231a13.921,13.921,0,0,1,.206-4.2,2.409,2.409,0,0,1,.354-.825c.1-.129.421-.529.656-.469.377.1-.032,1.472-.087,1.794a15.528,15.528,0,0,0,.611,8.291,8.153,8.153,0,0,0,4.854,4.6,11.51,11.51,0,0,0,7.926.355c4.449-1.545,5.1-5.885,6.6-9.736.223-.574.45-1.329.929-1.274.416,1-.746,4.012-1.089,4.915-1.785,4.714-5.031,7.765-10.336,7.227a11.327,11.327,0,0,0-1.271-.15l-.72,3.592a10.553,10.553,0,0,1,3.726,1.4,14.9,14.9,0,0,1,2.919,2.368L117.814,38.7a14.9,14.9,0,0,1,5.792-.657c.364.023,1.491.175,1.734.132Zm-1.191.694-.253,1.766c-.25.026-2.231-.135-3.478-.017a12.693,12.693,0,0,0-3.869.838,3.739,3.739,0,0,0-1.2.712c-.313.491.1.839.686.981,1.951.471,3.852.871,5.812,1.325s3.891.882,5.811,1.326c.429.1,5.55,1.285,5.869,1.255A.615.615,0,0,0,134.4,42.4a4.448,4.448,0,0,0-.673-.665,19.666,19.666,0,0,0-4.748-3.575l-1.239-.493c-.235-.068-.48-.125-.684-.2.071-.521.242-1.067.314-1.6.169,0,.4.038.544.049a9.867,9.867,0,0,0,6.761-1.711,10.784,10.784,0,0,0,1.575-1.354,12.7,12.7,0,0,0,2.27-3.436c.31-.65.539-1.3.808-1.988a14.005,14.005,0,0,0,1.069-4.483c-.138-1.464-1.935-2.057-2.814-.043l-2.047,5.481a8.525,8.525,0,0,1-2.043,3.092c-2.089,1.912-5.674,2.032-8.307,1.252-3.8-1.127-5.655-3.486-6.055-7.712a24,24,0,0,1,.487-5.921l-.038-.4c-.119-1.255-2.118-1.9-3.118.662a9.844,9.844,0,0,0-.413,2.953c-.024.55.08,1.1.057,1.641a18.746,18.746,0,0,0,.485,3.3,11.072,11.072,0,0,0,1.676,3.884,9.15,9.15,0,0,0,.83.988,9.366,9.366,0,0,0,1.451,1.2l1.651.959c.411.194.774.369,1.195.547Z" fill-rule="evenodd"/>
        <path id="Tracé_100" data-name="Tracé 100" d="M130.179,24.384c-.193-.211-1.125-.253-1.415-.3-.494-.078-1-.146-1.49-.252-.285-.062-1.215-.391-1.4-.159a3.917,3.917,0,0,0-.117,1.541,10.834,10.834,0,0,0,2.8.669c.408.063,1.143.278,1.372-.128.124-.221.4-1.156.252-1.373" fill-rule="evenodd"/>
      </g>
    </g>
  </g>
</svg>
