<svg xmlns="http://www.w3.org/2000/svg" width="23.167" height="23.964" viewBox="0 0 23.167 23.964">
  <g id="Groupe_594" data-name="Groupe 594" transform="translate(-885.288 -82.311)">
    <path id="Tracé_2" data-name="Tracé 2" d="M68.274,22c-1.16,0-1.353.178-2.438.224l-17.61.223c-1.3,0-1-2-1.1-3.116a10.89,10.89,0,0,1-.139-3.723c.44-2.387.153-5.13.583-7.57.219-1.239.28-2.492.41-3.688a13.951,13.951,0,0,1,.3-1.765c.184-.726.149-.872,1.005-1.185C50.528.944,56.366.751,58.521.751H68c0,1.357.262,1.627.281,2.9l.261,16.783A10.369,10.369,0,0,1,68.274,22Z" transform="translate(839.159 82.311)" fill="none" stroke="#fff" stroke-miterlimit="10" stroke-width="1.502"/>
    <text id="X" transform="translate(890.064 101.274)" fill="#fff" font-size="21.884" font-family="Helvetica"><tspan x="0" y="0">X</tspan></text>
  </g>
</svg>
