<svg xmlns="http://www.w3.org/2000/svg" xmlns:xlink="http://www.w3.org/1999/xlink" width="76.576" height="42.883" viewBox="0 0 76.576 42.883">
  <defs>
    <clipPath id="clip-path">
      <rect id="Rectangle_42" data-name="Rectangle 42" width="76.576" height="42.883" transform="translate(0 0)" fill="none"/>
    </clipPath>
  </defs>
  <g id="Groupe_60" data-name="Groupe 60" transform="translate(0 0)">
    <g id="Groupe_59" data-name="Groupe 59" clip-path="url(#clip-path)">
      <path id="Tracé_7" data-name="Tracé 7" d="M19.952,29.071a2.084,2.084,0,0,0-2.373-2.292H14.494a2.084,2.084,0,0,0-2.374,2.292v1.385a2.083,2.083,0,0,0,2.374,2.292h3.085a2.083,2.083,0,0,0,2.373-2.292Zm-2.059.967c0,.828-.375,1.078-1.365,1.078h-.984c-.99,0-1.365-.25-1.365-1.078v-.547c0-.828.375-1.078,1.365-1.078h.984c.99,0,1.365.25,1.365,1.078Z" fill="#fff"/>
      <rect id="Rectangle_38" data-name="Rectangle 38" width="2.16" height="5.968" transform="translate(21.529 26.779)" fill="#fff"/>
      <rect id="Rectangle_39" data-name="Rectangle 39" width="2.16" height="1.665" transform="translate(21.529 24.275)" fill="#fff"/>
      <path id="Tracé_8" data-name="Tracé 8" d="M20.974,16.762h2.351l1.836,4.266,1.833-4.267h2.352L26.511,22.73h-2.7Z" fill="#fff"/>
      <rect id="Rectangle_40" data-name="Rectangle 40" width="2.16" height="8.473" transform="translate(39.033 14.257)" fill="#fff"/>
      <path id="Tracé_9" data-name="Tracé 9" d="M29.426,31.307c.761,0,1.083-.072,1.083-.452s-.323-.424-1.084-.424l-1.689,0c-1.713,0-2.366-.359-2.366-1.841,0-1.5,1.045-1.807,2.387-1.807h4.448v1.44h-4c-.654,0-.93.064-.93.393s.276.41.93.41l1.7,0c2.338,0,2.511.76,2.511,1.792,0,1.532-.549,1.929-2.774,1.929H25.374v-1.44Z" fill="#fff"/>
      <path id="Tracé_10" data-name="Tracé 10" d="M37.236,31.382c-.918,0-1.354-.167-1.354-.779v-.192H41.23v-.975c0-2.008-.964-2.657-3.305-2.657H36.386c-1.606,0-2.708.477-2.708,2.666V30c0,2.474,1.538,2.745,2.995,2.745h4.52V31.382Zm-1.354-2.2c0-.736.114-1.04,1.606-1.04,1.324,0,1.608.291,1.608,1.04Z" fill="#fff"/>
      <path id="Tracé_11" data-name="Tracé 11" d="M2.374,26.779A2.084,2.084,0,0,0,0,29.071v1.386a2.083,2.083,0,0,0,2.374,2.291H5.459a2.083,2.083,0,0,0,2.374-2.291V24.273H5.672v3.664H5.649c-.134-.908-1.045-1.158-1.935-1.158Zm3.4,3.259c0,.828-.375,1.078-1.365,1.078H3.424c-.99,0-1.365-.25-1.365-1.078v-.547c0-.828.375-1.078,1.365-1.078h.984c.99,0,1.365.25,1.365,1.078Z" fill="#fff"/>
      <path id="Tracé_12" data-name="Tracé 12" d="M33.812,21.459h-.859c-.844,0-1.136-.147-1.136-.522,0-.476.191-.725,1.1-.725h.957c1.193,0,1.316.2,1.316.634,0,.5-.335.613-1.38.613m1.335,1.27c1.317.012,2.159-.283,2.159-1.645V18.837c0-1.361-.786-2.075-2.271-2.075H30.2v1.365h3.934c.845,0,1.013.2,1.013.767v.558c-.416-.432-1.069-.465-2.25-.465-2.093,0-3.173.09-3.173,1.667v.43c0,1.362.844,1.657,2.16,1.645Z" fill="#fff"/>
      <path id="Tracé_13" data-name="Tracé 13" d="M12.984,24.275v.032l-2.668,3.13h-1.4l1.049-2.045a1.635,1.635,0,0,1,1.559-1.117Z" fill="#fff"/>
      <rect id="Rectangle_41" data-name="Rectangle 41" width="0.656" height="5.798" transform="translate(0 35.659)" fill="#fff"/>
      <path id="Tracé_14" data-name="Tracé 14" d="M2.038,39.847c0,1.506.976,1.674,1.83,1.674H5.059c1.221,0,1.961-.28,1.961-1.218v-.079H6.364c-.038.624-.374.736-1.2.736h-.9c-1.144,0-1.572-.24-1.572-1.17v-.255H7.02v-.456c0-1.458-.847-1.771-2.022-1.771H3.945c-.931,0-1.907.167-1.907,1.65Zm4.326-.873H2.693c.062-.93.306-1.106,1.344-1.106H5c1.068,0,1.366.417,1.366.833Z" fill="#fff"/>
      <path id="Tracé_15" data-name="Tracé 15" d="M15.24,35.659h-.656v2.257h-.015c-.138-.424-.5-.608-1.244-.608h-1c-1.579,0-2.06.464-2.06,1.77V39.8c0,1.409.832,1.722,2.023,1.722H13.2c.687,0,1.221-.217,1.411-.713h.016v.649h.61ZM10.921,38.99c0-.945.45-1.122,1.351-1.122h.884c.886,0,1.428.161,1.428,1.138v.776c0,.746-.313,1.178-1.29,1.178H12.226c-1.068,0-1.305-.376-1.305-1.169Z" fill="#fff"/>
      <path id="Tracé_16" data-name="Tracé 16" d="M16.529,39.847c0,1.506.977,1.674,1.832,1.674h1.19c1.221,0,1.961-.28,1.961-1.218v-.079h-.656c-.038.624-.374.736-1.2.736h-.9c-1.145,0-1.572-.24-1.572-1.17v-.255h4.327v-.456c0-1.458-.847-1.771-2.023-1.771H18.437c-.931,0-1.908.167-1.908,1.65Zm1.839-3.1h.511l1.4-1.481H19.5Zm2.488,2.227H17.185c.061-.93.305-1.106,1.344-1.106h.96c1.068,0,1.367.417,1.367.833Z" fill="#fff"/>
      <path id="Tracé_17" data-name="Tracé 17" d="M22.772,42.882h.656v-1.97h.015c.137.425.45.609,1.145.609h1.251c1.352,0,1.908-.448,1.908-1.769v-.723c0-1.408-.869-1.721-1.8-1.721H24.7a1.3,1.3,0,0,0-1.3.713h-.016v-.649h-.61Zm4.319-3.043c0,.945-.458,1.122-1.221,1.122H24.7c-.694,0-1.274-.161-1.274-1.138v-.777a1.05,1.05,0,0,1,1.19-1.178h1.305c.923,0,1.168.377,1.168,1.17Z" fill="#fff"/>
      <path id="Tracé_18" data-name="Tracé 18" d="M33.057,41.457h.656V38.718c0-1.218-.824-1.41-2.044-1.41H30.63c-1.175,0-1.625.3-1.625,1.05v.2h.657v-.143c0-.337.159-.545.983-.545h.962c1.007,0,1.45.1,1.45.832v.769h-.015c-.23-.391-.535-.488-1.389-.488H30.6c-1.145,0-1.771.112-1.771,1.042V40.3c0,.768.26,1.224,1.252,1.224h1.572c1.008,0,1.214-.1,1.389-.473h.015Zm0-1.1c0,.512-.458.6-1.648.6h-.87c-.9,0-1.053-.192-1.053-.649v-.128c0-.513.237-.64,1.084-.64h1.007c1.007,0,1.48.072,1.48.632Z" fill="#fff"/>
      <path id="Tracé_19" data-name="Tracé 19" d="M35.156,37.372h.611v.592h.014a1.2,1.2,0,0,1,1.191-.656h.437c1.229,0,1.633.417,1.633,1.417v.489h-.61v-.176c0-1.009-.2-1.17-1.366-1.17h-.224a.951.951,0,0,0-1.03.994v2.6h-.656Z" fill="#fff"/>
      <path id="Tracé_20" data-name="Tracé 20" d="M40.4,37.933h-.855v-.561H40.4V36.4h.655v.969h2.6v.561h-2.6v2.034c0,.761.252.994.97.994h.206c.87,0,1.007-.193,1.007-1.049v-.305h.534v.448c0,.818-.076,1.467-1.495,1.467h-.359c-1.228,0-1.518-.625-1.518-1.29Z" fill="#fff"/>
      <path id="Tracé_21" data-name="Tracé 21" d="M44.627,39.847c0,1.506.977,1.674,1.832,1.674h1.19c1.221,0,1.962-.28,1.962-1.218v-.079h-.657c-.038.624-.374.736-1.2.736h-.9c-1.144,0-1.572-.24-1.572-1.169v-.256h4.328v-.456c0-1.458-.848-1.771-2.023-1.771H46.535c-.931,0-1.908.167-1.908,1.65Zm4.327-.873H45.283c.062-.93.306-1.106,1.344-1.106h.961c1.068,0,1.366.417,1.366.833Z" fill="#fff"/>
      <path id="Tracé_22" data-name="Tracé 22" d="M50.87,37.372h.61v.481h.015c.275-.424.649-.545,1.305-.545h1.061a1.251,1.251,0,0,1,1.259.753,1.409,1.409,0,0,1,1.442-.753h.795c1.052,0,1.7.481,1.7,1.41v2.739H58.4V38.8c0-.473-.2-.93-1.245-.93h-.465c-1.183,0-1.343.514-1.343,1.17v2.419h-.657V38.982c0-.793-.237-1.114-1.281-1.114h-.657c-.839,0-1.229.369-1.229,1.026v2.563H50.87Z" fill="#fff"/>
      <path id="Tracé_23" data-name="Tracé 23" d="M60.347,39.847c0,1.506.976,1.674,1.831,1.674h1.19c1.222,0,1.961-.28,1.961-1.218v-.079h-.656c-.039.624-.374.736-1.2.736h-.9C61.43,40.96,61,40.72,61,39.791v-.256h4.326v-.456c0-1.458-.847-1.771-2.023-1.771H62.255c-.932,0-1.908.167-1.908,1.65Zm4.326-.873H61c.06-.93.3-1.106,1.343-1.106h.96c1.07,0,1.367.417,1.367.833Z" fill="#fff"/>
      <path id="Tracé_24" data-name="Tracé 24" d="M66.588,37.372h.61v.7h.016c.243-.633.755-.769,1.572-.769h.984c1.229,0,1.617.649,1.617,1.386v2.763h-.656v-2.6c0-.6-.16-.994-1.435-.994h-.168c-1.533,0-1.884.305-1.884,1.266v2.323h-.656Z" fill="#fff"/>
      <path id="Tracé_25" data-name="Tracé 25" d="M73.2,37.933h-.855v-.561H73.2V36.4h.657v.969h2.6v.561h-2.6v2.035c0,.76.251.992.968.992h.206c.871,0,1.007-.192,1.007-1.048v-.305h.534v.448c0,.818-.075,1.467-1.495,1.467h-.359c-1.228,0-1.518-.625-1.518-1.29Z" fill="#fff"/>
      <path id="Tracé_26" data-name="Tracé 26" d="M30.794,0l5.052,11.845h8.82v20.9H62.653L76.576,0H69.708c-5.673,0-9.176,2.311-11.069,7.672l-5,14.173L45.98,0Z" fill="#eb3c2b"/>
    </g>
  </g>
</svg>
