<svg xmlns="http://www.w3.org/2000/svg" width="12.249" height="16.579" viewBox="0 0 12.249 16.579">
  <path id="Tracé_3" data-name="Tracé 3" d="M0,13.713A1.231,1.231,0,0,1,.629,12.64,110.172,110.172,0,0,1,10.1,5.534a1.834,1.834,0,0,1,.832-.185,1.165,1.165,0,0,1,.851.407,1.309,1.309,0,0,1,.389.926,1.536,1.536,0,0,1-.3.925q-.369.258-8.438,6.143.889.666,3.979,2.738t4.533,3.257a1.749,1.749,0,0,1,.3.906,1.179,1.179,0,0,1-.48.852,1.481,1.481,0,0,1-.981.425,1.223,1.223,0,0,1-.648-.111Q8.586,20.6,5.533,18.487T.556,14.86A1.471,1.471,0,0,1,0,13.713" transform="translate(0 -5.349)"/>
</svg>
