<svg id="Groupe_58" data-name="Groupe 58" xmlns="http://www.w3.org/2000/svg" xmlns:xlink="http://www.w3.org/1999/xlink" width="92.049" height="78.841" viewBox="0 0 92.049 78.841">
  <defs>
    <clipPath id="clip-path">
      <rect id="Rectangle_37" data-name="Rectangle 37" width="92.049" height="78.841" fill="none"/>
    </clipPath>
    <clipPath id="clip-path-2">
      <rect id="Rectangle_36" data-name="Rectangle 36" width="92.049" height="78.841" transform="translate(0 0)" fill="none"/>
    </clipPath>
  </defs>
  <g id="Groupe_57" data-name="Groupe 57" clip-path="url(#clip-path)">
    <g id="Groupe_56" data-name="Groupe 56">
      <g id="Groupe_55" data-name="Groupe 55" clip-path="url(#clip-path-2)">
        <g id="Groupe_51" data-name="Groupe 51" opacity="0.6">
          <g id="Groupe_50" data-name="Groupe 50">
            <g id="Groupe_49" data-name="Groupe 49" clip-path="url(#clip-path)">
              <path id="Tracé_5" data-name="Tracé 5" d="M75.416,78.841,0,22.112l2.987-.644-.216-3.04,2.981-.636-.209-3.048,2.981-.636-.216-3.04,2.987-.644-.216-3.04,2.987-.644-.21-3.048,2.987-.644L16.634,0,92.049,56.729l-2.987.643.216,3.041-2.981.635.21,3.049-2.981.635.216,3.041-2.987.644.216,3.04-2.987.644.209,3.048-2.987.644Z" fill="#eb3c2b"/>
            </g>
          </g>
        </g>
        <g id="Groupe_54" data-name="Groupe 54" opacity="0.37" style="mix-blend-mode: color-dodge;isolation: isolate">
          <g id="Groupe_53" data-name="Groupe 53">
            <g id="Groupe_52" data-name="Groupe 52" clip-path="url(#clip-path)">
              <path id="Tracé_6" data-name="Tracé 6" d="M75.416,78.841,0,22.112l2.987-.644-.216-3.04,2.981-.636-.209-3.048,2.981-.636-.216-3.04,2.987-.644-.216-3.04,2.987-.644-.21-3.048,2.987-.644L16.634,0,92.049,56.729l-2.987.643.216,3.041-2.981.635.21,3.049-2.981.635.216,3.041-2.987.644.216,3.04-2.987.644.209,3.048-2.987.644Z" fill="#eb3c2b"/>
            </g>
          </g>
        </g>
      </g>
    </g>
  </g>
</svg>
