<svg xmlns="http://www.w3.org/2000/svg" width="12.359" height="16.727" viewBox="0 0 12.359 16.727">
  <path id="Tracé_4" data-name="Tracé 4" d="M24.8,5.2a2.378,2.378,0,0,1,.813.148,5.791,5.791,0,0,1,.982.5q.573.353,1.072.7t1.389.981q.888.629,2.368,1.628t3.886,2.96a1.893,1.893,0,0,1,.813,1.314,1.841,1.841,0,0,1-.592,1.24l-.666.666a17.972,17.972,0,0,1-1.813,1.369l-1.11.777q-.741.519-2.59,1.777t-3.406,2.553a1.512,1.512,0,0,1-.7.111,1.4,1.4,0,0,1-.98-.444A1.336,1.336,0,0,1,23.8,20.5a1.533,1.533,0,0,1,.223-.869q1.775-1.3,4.607-3.22t4.2-3q-1.074-.813-3.368-2.349T24.239,7.495a1.808,1.808,0,0,1-.48-1.11,1.188,1.188,0,0,1,.314-.851A.966.966,0,0,1,24.8,5.2" transform="translate(-23.759 -5.201)" fill="#fff"/>
</svg>
